<svg width="32" height="32" viewBox="0 0 32 32" fill="none" xmlns="http://www.w3.org/2000/svg">
<path d="M16 0C24.8366 0 32 7.16343 32 16C32 24.8366 24.8366 32 16 32C7.16343 32 0 24.8366 0 16C8.62793e-08 7.16343 7.16343 8.62737e-08 16 0ZM14.2217 7.11133C11.0308 7.11134 8.44434 9.69779 8.44434 12.8887V13.3008C8.44434 13.7728 8.25584 14.2256 7.92285 14.5586L7.00488 15.4766C6.71512 15.7652 6.71512 16.2337 7.00488 16.5234L7.92285 17.4414C8.25701 17.7744 8.44434 18.2272 8.44434 18.6992V19.1113C8.44434 22.3022 11.0308 24.8887 14.2217 24.8887H17.7246C20.919 24.8886 23.5467 22.3174 23.5537 19.123C23.556 17.9699 23.2203 16.8953 22.6396 15.9922C22.1524 15.2339 21.964 14.3173 22.1299 13.4316C22.1871 13.1268 22.2184 12.8134 22.2207 12.4922C22.2474 9.53289 19.7904 7.11151 16.8311 7.11133H14.2217ZM12.2227 12.4443C12.6491 12.4444 13.0348 12.6165 13.3164 12.8945C13.5897 13.1644 13.7633 13.5359 13.7773 13.9482V14C13.7772 14.8505 13.0941 15.5418 12.2471 15.5547H12.2227C12.1796 15.5547 12.1376 15.5521 12.0957 15.5498C11.3374 15.489 10.7326 14.8841 10.6719 14.127C10.6684 14.085 10.667 14.0431 10.667 14C10.667 13.875 10.6831 13.7545 10.71 13.6377C10.7613 13.4193 10.8591 13.2195 10.9922 13.0479C11.2761 12.681 11.7214 12.4443 12.2227 12.4443Z" fill="#000A0A"/>
</svg>
